<?xml version="1.0" encoding="utf-8"?>
<!-- Generator: Adobe Illustrator 24.3.0, SVG Export Plug-In . SVG Version: 6.00 Build 0)  -->
<svg version="1.1" id="Layer_1" xmlns="http://www.w3.org/2000/svg" xmlns:xlink="http://www.w3.org/1999/xlink" x="0px" y="0px"
	 viewBox="0 0 1080 1080" style="enable-background:new 0 0 1080 1080;" xml:space="preserve">
<style type="text/css">
	.st0{fill:#FF7E21;}
	.st1{fill:#FFFFFF;}
</style>
<circle class="st0" cx="539.62" cy="540.18" r="539.82"/>
<path class="st1" d="M555.33,660.05c-17.93,0-35.87-5.88-51.17-17.8l-226.6-176.2v246.08c0,28.75,23.32,52.08,52.08,52.08h451.37
	c28.76,0,52.08-23.32,52.08-52.08V466.05L606.54,642.36C591.25,654.19,573.24,660.05,555.33,660.05z M295.24,435.77l230.24,179.14
	c17.57,13.68,42.17,13.68,59.74,0l230.24-179.14c10.15-8.68,17.63-22.03,17.63-36.13c0-28.76-23.33-52.08-52.08-52.08H329.65
	c-28.76,0-52.08,23.32-52.08,52.08C277.57,413.75,284.09,427.09,295.24,435.77z"/>
</svg>
