<?xml version="1.0" encoding="utf-8"?>
<!-- Generator: Adobe Illustrator 24.3.0, SVG Export Plug-In . SVG Version: 6.00 Build 0)  -->
<svg version="1.1" id="Layer_1" xmlns="http://www.w3.org/2000/svg" xmlns:xlink="http://www.w3.org/1999/xlink" x="0px" y="0px"
	 viewBox="0 0 1080 160.7" style="enable-background:new 0 0 1080 160.7;" xml:space="preserve">
<style type="text/css">
	.st0{fill:#FFFFFF;filter:url(#Adobe_OpacityMaskFilter);}
	.st1{mask:url(#mask0_39_195_1_);}
	.st2{fill:#1A1A1A;}
	.st3{fill:#FFFFFF;filter:url(#Adobe_OpacityMaskFilter_1_);}
	.st4{mask:url(#mask1_39_195_1_);}
	.st5{fill:#FFFFFF;filter:url(#Adobe_OpacityMaskFilter_2_);}
	.st6{mask:url(#mask2_39_195_1_);}
	.st7{fill:#FFFFFF;filter:url(#Adobe_OpacityMaskFilter_3_);}
	.st8{mask:url(#mask3_39_195_1_);}
	.st9{fill:#FFFFFF;filter:url(#Adobe_OpacityMaskFilter_4_);}
	.st10{mask:url(#mask4_39_195_1_);}
	.st11{fill:#FFFFFF;filter:url(#Adobe_OpacityMaskFilter_5_);}
	.st12{mask:url(#mask5_39_195_1_);}
	.st13{fill:#FFFFFF;filter:url(#Adobe_OpacityMaskFilter_6_);}
	.st14{mask:url(#mask6_39_195_1_);}
	.st15{fill:#FFFFFF;filter:url(#Adobe_OpacityMaskFilter_7_);}
	.st16{mask:url(#mask7_39_195_1_);}
	.st17{fill:#FF7E21;}
</style>
<g>
	<defs>
		<filter id="Adobe_OpacityMaskFilter" filterUnits="userSpaceOnUse" x="0" y="0" width="117.56" height="163.47">
			<feColorMatrix  type="matrix" values="1 0 0 0 0  0 1 0 0 0  0 0 1 0 0  0 0 0 1 0"/>
		</filter>
	</defs>
	<mask maskUnits="userSpaceOnUse" x="0" y="0" width="117.56" height="163.47" id="mask0_39_195_1_">
		<path class="st0" d="M117.56,0H-1.79v163.8h119.35V0z"/>
	</mask>
	<g class="st1">
		<path class="st2" d="M32.08,0v58.45h0.49c3.91-6.02,9.28-10.42,15.96-13.19c6.68-2.77,13.68-4.23,20.84-4.23
			c5.86,0,11.72,1.14,17.42,3.58c5.7,2.44,10.91,6.02,15.47,11.07c4.56,4.88,8.3,11.23,11.07,19.05c2.93,7.65,4.23,16.93,4.23,27.52
			c0,10.58-1.47,19.86-4.23,27.52c-2.93,7.65-6.51,14-11.07,19.05c-4.56,4.88-9.77,8.63-15.47,11.07
			c-5.7,2.44-11.56,3.58-17.42,3.58c-8.63,0-16.28-1.3-22.96-4.07c-6.84-2.77-11.89-7.33-15.31-13.68h-0.49v14.82H0V0H32.08z
			 M83.85,88.41c-1.14-4.56-2.77-8.47-5.05-11.89c-2.28-3.42-5.05-6.19-8.47-8.14c-3.42-1.95-7.49-3.09-12.21-3.09
			c-4.72,0-8.63,0.98-12.21,3.09c-3.42,1.95-6.35,4.72-8.63,8.14c-2.28,3.42-3.91,7.49-4.88,11.89c-1.14,4.56-1.63,9.28-1.63,14.17
			c0,4.88,0.49,9.44,1.63,14c1.14,4.56,2.77,8.47,4.88,11.89c2.28,3.42,5.05,6.19,8.63,8.14c3.42,1.95,7.49,3.09,12.21,3.09
			c4.72,0,8.96-0.98,12.21-3.09c3.42-1.95,6.19-4.72,8.47-8.14c2.28-3.42,3.91-7.49,5.05-11.89c1.14-4.56,1.63-9.12,1.63-14
			C85.48,97.69,84.99,92.81,83.85,88.41z"/>
	</g>
	<defs>
		<filter id="Adobe_OpacityMaskFilter_1_" filterUnits="userSpaceOnUse" x="134.17" y="41.03" width="120.49" height="122.28">
			<feColorMatrix  type="matrix" values="1 0 0 0 0  0 1 0 0 0  0 0 1 0 0  0 0 0 1 0"/>
		</filter>
	</defs>
	<mask maskUnits="userSpaceOnUse" x="134.17" y="41.03" width="120.49" height="122.28" id="mask1_39_195_1_">
		<path class="st3" d="M256.44,40.71H132.7v122.93h123.74V40.71z"/>
	</mask>
	<g class="st4">
		<path class="st2" d="M138.4,77.18c2.93-7.65,6.84-14,12.21-19.38c5.21-5.37,11.56-9.44,18.89-12.37c7.33-2.93,15.63-4.4,24.75-4.4
			c9.12,0,17.42,1.47,24.91,4.4c7.49,2.93,13.84,7,19.05,12.37c5.21,5.37,9.28,11.72,12.21,19.38c2.93,7.65,4.23,15.96,4.23,25.24
			s-1.47,17.75-4.23,25.24c-2.77,7.49-6.84,13.84-12.21,19.21c-5.37,5.37-11.56,9.44-19.05,12.21c-7.49,2.93-15.79,4.23-24.91,4.23
			c-9.12,0-17.42-1.47-24.75-4.23c-7.33-2.93-13.68-7-18.89-12.21c-5.21-5.21-9.28-11.72-12.21-19.21
			c-2.93-7.49-4.23-15.96-4.23-25.24S135.63,84.67,138.4,77.18z M167.54,116.09c0.98,4.4,2.44,8.47,4.56,11.89
			c2.12,3.58,5.05,6.35,8.63,8.47c3.58,2.12,8.14,3.09,13.51,3.09c5.37,0,9.93-0.98,13.68-3.09c3.75-2.12,6.68-4.88,8.79-8.47
			c2.12-3.58,3.74-7.49,4.56-11.89c0.98-4.4,1.3-8.95,1.3-13.51c0-4.56-0.49-9.28-1.3-13.68c-0.81-4.4-2.44-8.47-4.56-11.89
			c-2.12-3.42-5.05-6.19-8.79-8.47c-3.74-2.12-8.3-3.26-13.68-3.26c-5.37,0-9.93,1.14-13.51,3.26c-3.58,2.12-6.51,5.05-8.63,8.47
			c-2.12,3.42-3.74,7.49-4.56,11.89c-0.98,4.56-1.3,9.12-1.3,13.68C166.24,107.14,166.57,111.7,167.54,116.09z"/>
	</g>
	<defs>
		<filter id="Adobe_OpacityMaskFilter_2_" filterUnits="userSpaceOnUse" x="270.61" y="0" width="118.53" height="163.47">
			<feColorMatrix  type="matrix" values="1 0 0 0 0  0 1 0 0 0  0 0 1 0 0  0 0 0 1 0"/>
		</filter>
	</defs>
	<mask maskUnits="userSpaceOnUse" x="270.61" y="0" width="118.53" height="163.47" id="mask2_39_195_1_">
		<path class="st5" d="M391.1,0H269.47v163.8H391.1V0z"/>
	</mask>
	<g class="st6">
		<path class="st2" d="M358.21,145.72c-3.74,6.35-8.63,10.91-14.82,13.51c-6.02,2.77-13.03,4.23-20.68,4.23
			c-8.79,0-16.45-1.63-22.96-5.05c-6.68-3.42-12.05-7.98-16.28-13.68c-4.23-5.7-7.49-12.37-9.61-19.86
			c-2.12-7.49-3.26-15.31-3.26-23.45s1.14-15.31,3.26-22.63c2.12-7.33,5.37-13.68,9.61-19.21c4.23-5.54,9.61-10.09,16.12-13.35
			c6.51-3.42,14-5.05,22.47-5.05c6.84,0,13.51,1.47,19.7,4.4c6.19,2.93,11.23,7.16,14.82,12.86h0.49V0h32.08v160.54H358.7v-14.82
			H358.21z M356.9,88.25c-0.98-4.4-2.44-8.3-4.56-11.72c-2.12-3.42-5.05-6.19-8.47-8.14c-3.42-2.12-7.82-3.09-13.03-3.09
			c-5.21,0-9.61,0.98-13.35,3.09c-3.75,2.12-6.51,4.88-8.63,8.3c-2.12,3.42-3.74,7.33-4.72,11.89c-0.98,4.56-1.46,9.12-1.46,13.84
			c0,4.56,0.49,8.95,1.63,13.51c1.14,4.56,2.77,8.47,5.05,12.05c2.28,3.58,5.21,6.35,8.79,8.47c3.58,2.12,7.82,3.26,12.7,3.26
			c5.21,0,9.61-0.98,13.19-3.09c3.58-2.12,6.35-4.88,8.47-8.47c2.12-3.58,3.58-7.49,4.56-12.05c0.98-4.56,1.3-9.12,1.3-14
			C358.37,97.2,357.88,92.64,356.9,88.25z"/>
	</g>
	<defs>
		<filter id="Adobe_OpacityMaskFilter_3_" filterUnits="userSpaceOnUse" x="407.54" y="41.19" width="116.31" height="122.28">
			<feColorMatrix  type="matrix" values="1 0 0 0 0  0 1 0 0 0  0 0 1 0 0  0 0 0 1 0"/>
		</filter>
	</defs>
	<mask maskUnits="userSpaceOnUse" x="407.54" y="41.19" width="116.31" height="122.28" id="mask3_39_195_1_">
		<path class="st7" d="M525.75,40.71H406.4v122.93h119.35V40.71z"/>
	</mask>
	<g class="st8">
		<path class="st2" d="M447.6,132.7c4.88,4.56,11.72,7,20.68,7c6.51,0,12.05-1.63,16.61-4.88c4.72-3.26,7.49-6.68,8.63-10.26h28.17
			c-4.56,14-11.4,23.93-20.68,29.96c-9.28,6.02-20.52,8.96-33.87,8.96c-9.12,0-17.42-1.47-24.75-4.4c-7.33-2.93-13.68-7-18.72-12.54
			c-5.05-5.37-9.12-11.89-11.89-19.38c-2.77-7.49-4.23-15.79-4.23-24.75c0-8.96,1.46-16.77,4.23-24.26
			c2.93-7.49,6.84-14,12.21-19.38c5.21-5.54,11.56-9.77,18.89-12.86c7.33-3.09,15.31-4.72,24.26-4.72c9.93,0,18.56,1.95,25.89,5.7
			c7.33,3.74,13.35,8.96,18.07,15.47c4.72,6.51,8.14,13.84,10.26,21.98c2.12,8.3,2.93,16.77,2.28,25.89h-84.02
			C440.11,120.49,442.71,127.98,447.6,132.7z M483.74,71.48c-3.91-4.23-9.61-6.35-17.42-6.35c-5.05,0-9.28,0.81-12.7,2.61
			c-3.42,1.79-6.02,3.91-8.14,6.35c-1.95,2.61-3.42,5.21-4.23,8.14c-0.81,2.93-1.3,5.37-1.47,7.65h52.1
			C490.26,81.9,487.49,75.71,483.74,71.48z"/>
	</g>
	<path class="st2" d="M573.13,44.29v16.28h0.65c4.07-6.68,9.28-11.72,15.79-14.65c6.51-3.09,13.03-4.56,19.86-4.56
		c8.63,0,15.63,1.14,21,3.42c5.54,2.28,9.77,5.54,13.03,9.61c3.09,4.07,5.37,9.12,6.68,15.14c1.3,5.86,1.95,12.54,1.95,19.7v71.48
		h-32.08V94.92c0-9.61-1.47-16.77-4.56-21.49c-3.09-4.72-8.3-7-15.96-7c-8.79,0-14.98,2.61-18.89,7.82
		c-3.91,5.21-5.86,13.68-5.86,25.56v60.9h-32.08V44.29H573.13z"/>
	<defs>
		<filter id="Adobe_OpacityMaskFilter_4_" filterUnits="userSpaceOnUse" x="677.17" y="0" width="32.08" height="160.54">
			<feColorMatrix  type="matrix" values="1 0 0 0 0  0 1 0 0 0  0 0 1 0 0  0 0 0 1 0"/>
		</filter>
	</defs>
	<mask maskUnits="userSpaceOnUse" x="677.17" y="0" width="32.08" height="160.54" id="mask4_39_195_1_">
		<path class="st9" d="M710.23,0h-34.68v162.33h34.68V0z"/>
	</mask>
	<g class="st10">
		<path class="st2" d="M677.17,26.38V0h32.08v26.38H677.17z M709.25,44.29v116.25h-32.08V44.29H709.25z"/>
	</g>
	<defs>
		<filter id="Adobe_OpacityMaskFilter_5_" filterUnits="userSpaceOnUse" x="730.91" y="41.03" width="120.49" height="122.28">
			<feColorMatrix  type="matrix" values="1 0 0 0 0  0 1 0 0 0  0 0 1 0 0  0 0 0 1 0"/>
		</filter>
	</defs>
	<mask maskUnits="userSpaceOnUse" x="730.91" y="41.03" width="120.49" height="122.28" id="mask5_39_195_1_">
		<path class="st11" d="M853.51,40.71H729.77v122.93h123.74V40.71z"/>
	</mask>
	<g class="st12">
		<path class="st2" d="M735.14,77.18c2.93-7.65,6.84-14,12.21-19.38c5.21-5.37,11.56-9.44,18.89-12.37
			c7.33-2.93,15.63-4.4,24.75-4.4s17.42,1.47,24.91,4.4c7.49,2.93,13.84,7,19.05,12.37c5.21,5.37,9.28,11.72,12.21,19.38
			c2.93,7.65,4.23,15.96,4.23,25.24s-1.46,17.75-4.23,25.24c-2.93,7.49-6.84,13.84-12.21,19.21c-5.37,5.37-11.56,9.44-19.05,12.21
			c-7.49,2.93-15.79,4.23-24.91,4.23s-17.42-1.47-24.75-4.23c-7.33-2.93-13.68-7-18.89-12.21c-5.21-5.21-9.28-11.72-12.21-19.21
			c-2.93-7.49-4.23-15.96-4.23-25.24S732.21,84.67,735.14,77.18z M764.28,116.09c0.98,4.4,2.44,8.47,4.56,11.89
			c2.12,3.58,5.05,6.35,8.63,8.47c3.58,2.12,8.14,3.09,13.51,3.09c5.37,0,9.93-0.98,13.68-3.09c3.74-2.12,6.68-4.88,8.79-8.47
			c2.12-3.58,3.75-7.49,4.56-11.89c0.81-4.4,1.3-8.95,1.3-13.51c0-4.56-0.49-9.28-1.3-13.68c-0.98-4.56-2.44-8.47-4.56-11.89
			c-2.12-3.42-5.05-6.19-8.79-8.47c-3.75-2.12-8.14-3.26-13.68-3.26c-5.54,0-9.93,1.14-13.51,3.26c-3.58,2.12-6.51,5.05-8.63,8.47
			c-2.12,3.42-3.75,7.49-4.56,11.89c-0.81,4.56-1.3,9.12-1.3,13.68C762.98,107.14,763.31,111.7,764.28,116.09z"/>
	</g>
	<defs>
		<filter id="Adobe_OpacityMaskFilter_6_" filterUnits="userSpaceOnUse" x="886.56" y="91.02" width="192.78" height="72.62">
			<feColorMatrix  type="matrix" values="1 0 0 0 0  0 1 0 0 0  0 0 1 0 0  0 0 0 1 0"/>
		</filter>
	</defs>
	<mask maskUnits="userSpaceOnUse" x="886.56" y="91.02" width="192.78" height="72.62" id="mask6_39_195_1_">
		<path class="st13" d="M1081.46,90.69H886.07v72.94h195.39V90.69z"/>
	</mask>
	<g class="st14">
		<path class="st2" d="M1039.12,91.02l40.22,21.33l-96.39,51.29l-96.39-51.29l40.22-21.33l52.59,28.01c2.12,1.14,4.89,1.14,7.01,0
			L1039.12,91.02z"/>
	</g>
	<defs>
		<filter id="Adobe_OpacityMaskFilter_7_" filterUnits="userSpaceOnUse" x="886.89" y="-0.16" width="192.78" height="102.58">
			<feColorMatrix  type="matrix" values="1 0 0 0 0  0 1 0 0 0  0 0 1 0 0  0 0 0 1 0"/>
		</filter>
	</defs>
	<mask maskUnits="userSpaceOnUse" x="886.89" y="-0.16" width="192.78" height="102.58" id="mask7_39_195_1_">
		<path class="st15" d="M1081.46,0H886.07v103.72h195.39V0z"/>
	</mask>
	<g class="st16">
		<path class="st17" d="M983.28,102.41l-96.39-51.29l96.39-51.29l96.39,51.45L983.28,102.41z"/>
	</g>
</g>
</svg>
