<?xml version="1.0" encoding="utf-8"?>
<!-- Generator: Adobe Illustrator 24.3.0, SVG Export Plug-In . SVG Version: 6.00 Build 0)  -->
<svg version="1.1" id="Layer_1" xmlns="http://www.w3.org/2000/svg" xmlns:xlink="http://www.w3.org/1999/xlink" x="0px" y="0px"
	 viewBox="0 0 1080 1080" style="enable-background:new 0 0 1080 1080;" xml:space="preserve">
<style type="text/css">
	.st0{fill:#FF7E21;}
	.st1{fill:#FFFFFF;}
</style>
<circle class="st0" cx="539.72" cy="540.28" r="539.72"/>
<path class="st1" d="M430.85,527.99c33.35,65.55,86.97,119.17,152.64,152.53l50.96-51.07c6.37-6.37,15.52-8.23,23.51-5.67
	c25.94,8.57,53.85,13.2,82.69,13.2c12.85,0,23.16,10.31,23.16,23.16v81.07c0,12.86-10.31,23.16-23.16,23.16
	c-217.5,0-393.76-176.26-393.76-393.76c0-12.86,10.42-23.16,23.16-23.16h81.07c12.85,0,23.16,10.31,23.16,23.16
	c0,28.84,4.63,56.75,13.2,82.69c2.55,7.99,0.7,17.14-5.67,23.51L430.85,527.99z"/>
</svg>
